<?xml version="1.0" standalone="no"?>
<!DOCTYPE svg PUBLIC "-//W3C//DTD SVG 1.1//EN" "http://www.w3.org/Graphics/SVG/1.1/DTD/svg11.dtd" >
<svg xmlns="http://www.w3.org/2000/svg" xmlns:xlink="http://www.w3.org/1999/xlink" version="1.1">
<metadata></metadata>
<defs>
<font id="web_iconsregular" horiz-adv-x="1484" >
<font-face units-per-em="2048" ascent="1638" descent="-410" />
<missing-glyph horiz-adv-x="500" />
<glyph unicode="&#xd;" horiz-adv-x="682" />
<glyph unicode="#" horiz-adv-x="1481" d="M-2 741l341 341l341 -341l-341 -341zM398 341l341 341l341 -341l-341 -341zM398 1141l341 341l341 -341l-341 -340zM798 741l341 341l341 -341l-341 -341z" />
<glyph unicode="+" horiz-adv-x="1511" d="M-1 -1v1483h504v-131h-373v-1221h373v-131h-504zM491 675v131h471v-131h-471zM660 505v471h132v-471h-132zM1007 -1v131h372v1221h-372v131h503v-1483h-503z" />
<glyph unicode="-" horiz-adv-x="1511" d="M-1 -1v1483h504v-131h-373v-1221h373v-131h-504zM491 675v131h471v-131h-471zM1007 -1v131h372v1221h-372v131h503v-1483h-503z" />
<glyph unicode="/" horiz-adv-x="2691" d="M-7 736l740 -740l139 139l-601 601l601 602l-139 139zM948 -1l594 1483h192l-594 -1483h-192zM1809 135l139 -139l741 740l-741 741l-139 -139l601 -602z" />
<glyph unicode="&#x3c;" horiz-adv-x="877" d="M0 737l740 741l139 -139l-601 -602l601 -601l-139 -139z" />
<glyph unicode="&#x3e;" horiz-adv-x="883" d="M2 137l601 601l-601 602l139 139l740 -741l-740 -740z" />
<glyph unicode="A" horiz-adv-x="1707" />
<glyph unicode="B" horiz-adv-x="1240" d="M-2 -1v1484h699q106 0 193 -18q45 -10 82 -25t68 -37q62 -41 97 -113q34 -69 34 -175q0 -110 -52 -186q-51 -76 -150 -124q137 -39 205 -138q68 -100 68 -238q0 -112 -44 -194q-44 -83 -117 -135q-77 -52 -169 -77q-95 -24 -194 -24h-720zM325 252h349q24 0 47 2.5 t45 7.5q43 9 77 31q31 20 53 59q19 37 19 96q0 114 -64 163t-171 49h-355v-408zM325 882h330q88 0 144 42t56 135q0 53 -19 85q-18 34 -49 52q-16 10 -34 16t-38 10q-38 7 -85 7h-305v-347z" />
<glyph unicode="D" horiz-adv-x="1754" d="M1 231q0 135 22 275t54 243t64 186.5t54 126.5l22 44q60 45 126 78t116.5 47.5t92.5 22.5t64 8l22 1l16 -18q-76 -22 -144.5 -50t-112 -53t-76.5 -46.5t-48 -34.5l-14 -13q33 19 89 44q184 81 340 94q18 4 26 4q80 10 159 10l143 -8q240 -27 452 -144q-5 5 -14.5 13 t-43.5 31.5t-73.5 46t-105 50.5t-137.5 50l22 24q8 0 23 -0.5t62 -8.5t94.5 -22.5t114.5 -47.5t127 -78q9 -16 23.5 -45.5t51.5 -123t65.5 -190.5t52 -239t23.5 -277q-5 -9 -15.5 -23.5t-50.5 -52.5t-88 -68t-130 -55.5t-175 -28.5q-54 65 -99 121q55 16 103 40t77.5 47.5 t51.5 44.5t31 34l8 13q-85 -56 -172 -89q-110 -46 -218 -64q-92 -18 -186 -18q-100 0 -202 20q-109 21 -220 64q-62 24 -110 51q-2 1 -6.5 3.5t-7.5 3.5q-2 2 -6 5l-42 25q3 -4 9 -12.5t29 -32.5t50.5 -45t74.5 -46t100 -40l-101 -125q-67 2 -129 16t-106.5 34t-83 44 t-63 47.5t-42.5 43t-25 31.5zM444 537q0 -69 44.5 -118t107.5 -49q64 0 109 49t45 121q0 67 -44 115q-45 49 -110 49q-63 0 -107.5 -49t-44.5 -118zM991 537q0 -69 45 -118t108 -49q64 0 108.5 49t44.5 118t-44.5 118t-108.5 49t-108.5 -49t-44.5 -118z" />
<glyph unicode="H" horiz-adv-x="1486" d="M-1 -1v324h1487v-324h-1487zM2 975q0 40 13 63q14 26 36 41q11 7 23 12.5t26 9.5q26 7 56 12q14 2 27.5 3.5t27.5 3.5t26 3.5t23 4.5q11 2 19 6t14 9q12 10 12 30q0 21 -7 32q-5 11 -17 19q-6 3 -12 5t-14 3q-8 2 -15.5 2h-15.5q-37 0 -59 -15q-21 -16 -24 -53h-125 q1 41 22 73q20 30 49 47q15 8 31.5 14.5t35.5 10.5t38 5.5t38 1.5q17 0 34.5 -1t34.5 -4q36 -5 65 -19t47 -39q19 -23 19 -66v-237q0 -16 1 -31t3 -29q1 -18 6 -30l-12 -12h-109q-2 5 -3 10.5t-3 11.5q-1 5 -1.5 11t-1.5 11q-15 -15 -32.5 -26t-37.5 -17q-41 -12 -83 -12 q-17 0 -32 1.5t-29 6.5q-27 7 -50 24q-21 18 -32 43q-12 25 -12 61zM44 348l232 241h361l-238 -241h-355zM127 980q0 -18 6 -28q6 -12 17 -18q9 -7 24 -10q8 -1 14.5 -2t14.5 -1q35 0 58 13q19 12 30 29q9 18 12 35q1 9 1.5 16t0.5 13v46q-5 -3 -9.5 -6t-10.5 -5t-12.5 -3.5 t-13.5 -2.5q-7 -2 -13.5 -3t-14.5 -2t-15 -2t-15 -2q-8 -2 -14.5 -3.5t-13.5 -3.5q-14 -5 -24 -12q-11 -9 -16 -19q-6 -12 -6 -29zM283 617l860 859h337l-628 -859h-569zM527 949v531h125v-230h2q22 35 62 52q38 16 81 16q34 0 68 -14q3 -1 5.5 -2t4.5 -2l-82 -83 q-15 7 -39 7q-28 0 -47 -12q-20 -11 -34 -32q-13 -20 -19 -47t-6 -55v-7z" />
<glyph unicode="T" horiz-adv-x="1825" d="M1 169q43 -6 89 -6q132 0 250 42.5t215 118.5q-62 1 -117.5 21t-101 54.5t-79.5 81.5t-52 103q32 -7 70 -7q54 0 99 13q-64 13 -119 46.5t-95 82t-63 109.5t-23 129v5q38 -21 80.5 -33t88.5 -14q-75 51 -120.5 132.5t-45.5 179.5q0 51 13 98.5t38 89.5 q69 -85 154.5 -154.5t183.5 -120t207 -80.5t226 -36q-9 40 -9 85q0 78 29.5 146t80 119t118.5 80.5t146 29.5q81 0 151.5 -32t121.5 -87q128 25 238 91q-21 -66 -63.5 -119t-101.5 -88q112 13 216 59q-38 -57 -85 -105.5t-102 -88.5q0 -12 0.5 -24t0.5 -24q0 -124 -31 -251 t-92 -245.5t-151.5 -222t-209 -181t-264.5 -122t-318 -44.5q-159 0 -303.5 44t-269.5 125z" />
<glyph unicode="X" horiz-adv-x="1482" d="M-1 100l643 643l-643 642l100 99l642 -642l642 642l100 -99l-643 -642l643 -643l-100 -99l-642 642l-642 -642z" />
<glyph unicode="[" horiz-adv-x="2086" d="M1 0v1486h504v-198h-306v-1090h306v-198h-504zM650 0l594 1483h192l-593 -1483h-193zM1581 0v198h306v1090h-306v198h504v-1486h-504z" />
<glyph unicode="f" horiz-adv-x="910" d="M-3 662v329h248v165q0 62 29 121t80.5 105.5t121.5 75t151 28.5h278v-330h-248q-11 0 -25 -5.5t-26.5 -16t-21.5 -26t-9 -34.5v-83h247v-329h-247v-660h-330v660h-248z" />
<glyph unicode="i" horiz-adv-x="439" d="M2 1l105 1076h295l-104 -1076h-296zM120 1243l21 243h296l-21 -243h-296z" />
<glyph unicode="m" horiz-adv-x="4491" d="M20 155v864h25q65 0 115.5 -39.5t64.5 -101.5q37 56 93 92t118 46q29 5 58 5q32 1 64 -5q60 -10 109.5 -50t75.5 -100q103 155 287 155q279 0 279 -326q0 -16 -1 -32v-508q0 -11 -7 -19t-19 -8h-156q-11 0 -19 7.5t-8 19.5v465q0 55 -6.5 93t-23 69.5t-49 47t-80.5 15.5 q-52 0 -92 -34.5t-59 -86t-19 -108.5v-459q0 -11 -7.5 -19t-19.5 -8h-156q-11 0 -18.5 7.5t-7.5 19.5v479q0 209 -160 209q-55 0 -94.5 -33.5t-57.5 -84.5t-18 -111v-461q0 -11 -7.5 -19t-19.5 -8h-157q-11 0 -19 7.5t-8 19.5zM1480 1285q0 -46 33.5 -79t81 -33t80.5 33 t33 79.5t-34 79.5t-81 33t-80 -33t-33 -80zM1486 155v760q0 44 32 75t75 31q45 0 75 -31q27 -28 27 -67v-8v-760q0 -11 -7 -19t-19 -8h-156q-11 0 -19 7.5t-8 19.5zM1874 206q0 4 -1 7q0 38 23 67l213 287l-211 284q-23 31 -23 68q1 4 1 8q2 42 32 70q31 28 70 28q6 0 12 -1 q46 -5 74 -42l297 -399q11 -18 0 -33l-299 -401q-28 -37 -74 -42q-6 -1 -12 -1q-39 0 -70 28q-30 30 -32 72zM2422 550q-11 15 0 33l297 399q28 37 74 42q6 1 12 1q39 0 70 -28t33 -70v-8q0 -38 -23 -68l-213 -284l213 -287q23 -29 23 -67v-7q-2 -42 -33 -72 q-31 -28 -70 -28q-6 0 -12 1q-46 5 -74 42zM3002 556q0 89 22 164t60 127.5t88.5 91.5t106.5 58t116 24q18 2 36 2q41 0 79 -8q56 -12 106 -38.5t86 -65.5q101 -111 101 -318q0 -39 -28 -66.5t-67 -27.5h-489q4 -54 21.5 -95t43.5 -65t60 -39q34 -16 68 -20q24 -3 48 -3 q10 0 22 1q36 2 66 8t56 14q16 7 27 -8l69 -92q8 -11 5 -24t-15 -17q-48 -22 -106 -36q-58 -15 -124 -17h-26q-53 0 -105 8q-64 10 -123.5 42.5t-104.5 82.5t-72 131.5t-27 185.5zM3219 661h371q-3 91 -45 139q-46 51 -127 51q-74 0 -129 -55t-70 -135zM3952 153 q0 -12 8 -19.5t19 -7.5h155q12 0 19.5 8t7.5 19v420q0 88 31 151q32 64 90 88q26 11 57 11q38 0 84 -17q14 -5 25.5 3.5t11.5 23.5v149q2 8 -4 15.5t-14 9.5q-25 7 -65.5 8t-51.5 -4q-115 -34 -164 -154q-9 68 -61 114t-121 46h-27v-864z" />
<glyph unicode="r" horiz-adv-x="1754" d="M1 762q0 42 16 78q15 36 43 64q27 27 63 44q36 15 79 15q79 0 132 -49q103 64 236 103q132 39 283 42l142 402l338 -81q21 47 61 75q41 29 92 29q70 0 118 -48t48 -118q0 -69 -48 -117t-118 -48q-68 0 -116 48q-27 27 -40 64l-264 63l-96 -272q59 -5 114 -14.5t108 -26.5 q126 -39 226 -101q58 49 132 49q42 0 80 -15q18 -8 34 -19t30 -25q28 -28 43 -64q16 -36 16 -78q0 -52 -26 -98t-70 -73q6 -32 6 -61q0 -108 -62 -206q-62 -97 -169 -168q-108 -72 -251 -114q-146 -41 -306 -41q-162 0 -306 41q-144 43 -250 114q-109 73 -170 168 q-61 97 -61 206v16t1 16q2 8 2.5 15.5t1.5 15.5q-41 26 -67 72q-25 45 -25 97zM209 530q0 -87 53 -166q54 -80 142 -136q45 -29 98 -52t114 -40q120 -34 259 -34t260 34q61 17 114 40t98 52q46 29 81.5 63t61.5 73q53 79 53 166q0 88 -53 167q-54 81 -143 137q-45 29 -98 52 t-114 40q-62 17 -126.5 25.5t-133.5 8.5t-133.5 -8.5t-125.5 -25.5t-114 -40t-98 -52q-89 -56 -142 -137q-53 -79 -53 -167zM502 638q0 52 36 88t87 36q52 0 88 -36q37 -36 37 -88q0 -51 -37 -87q-36 -36 -88 -36q-51 0 -87 36t-36 87zM550 351q-1 10 2.5 20.5t14.5 21.5 q10 10 21 12.5t21 0.5t18 -7t12 -9q0 -1 15.5 -14.5t45.5 -30.5q41 -23 87.5 -31.5t84.5 -8.5q60 0 104.5 13t74.5 29t45 29l15 14q4 5 12.5 9.5t18.5 6t21 -1.5t20 -12q10 -10 13.5 -21t2.5 -20.5t-5 -17.5t-8 -13q-2 -2 -22.5 -20.5t-59.5 -40t-97 -39t-135 -17.5 t-134.5 17.5t-96 39.5t-58 40.5t-20.5 20.5q-4 5 -8 12.5t-5 17.5zM1019 638q0 51 35 88q36 36 90 36q51 0 87 -36t36 -88q0 -51 -36 -87t-87 -36q-54 0 -90 36q-35 37 -35 87z" />
<glyph unicode="t" horiz-adv-x="4491" d="M3 465v1025h487l231 -231h1051v231h871v-231h230v-128l129 128h256l230 231h487v-231h282l231 -231v-768l-385 -257h-256v128l-179 -128h-231v128l-128 -128h-410l-128 128l-26 -128h-358l-147 128l-8 -128h-407l-14 128l-110 -128h-621l-129 52v-52h-333l-384 231z M106 516l179 -180h333v282h-230v257h230v281h-230v231h-282v-871zM721 336h871l180 180v640h-282v-538h-103v538h-282v-538h-102v538h-282v-820zM1874 336h282v820h-282v-820zM1874 1259h282v128h-282v-128zM2258 516l180 -180h333v282h-231v257h231v281h-231v231h-282v-871 zM2873 516l180 -180h435v282h-333v257h333v281h-435l-180 -179v-461zM3591 336h282v539h230v-539h282v641l-179 179h-333v231h-282v-1051z" />
<glyph unicode="&#x2c4;" horiz-adv-x="1438" d="M6 575l717 717l717 -717l-135 -135l-582 583l-583 -583z" />
<glyph unicode="&#x2c5;" horiz-adv-x="1429" d="M-9 1007l134 135l583 -583l582 583l135 -135l-717 -717z" />
<glyph unicode="&#x2000;" horiz-adv-x="746" />
<glyph unicode="&#x2001;" horiz-adv-x="1493" />
<glyph unicode="&#x2002;" horiz-adv-x="746" />
<glyph unicode="&#x2003;" horiz-adv-x="1493" />
<glyph unicode="&#x2004;" horiz-adv-x="497" />
<glyph unicode="&#x2005;" horiz-adv-x="373" />
<glyph unicode="&#x2006;" horiz-adv-x="248" />
<glyph unicode="&#x2007;" horiz-adv-x="248" />
<glyph unicode="&#x2008;" horiz-adv-x="186" />
<glyph unicode="&#x2009;" horiz-adv-x="298" />
<glyph unicode="&#x200a;" horiz-adv-x="82" />
<glyph unicode="&#x2016;" d="M0 2v1486h596v-1486h-596zM890 2v1486h596v-1486h-596z" />
<glyph unicode="&#x201d;" horiz-adv-x="1419" d="M-1 195v1033l97 259h1324v-905l-388 -387h-290l-194 -194h-194v194h-355zM225 421h291v-194l194 194h355l226 226v710h-1066v-936zM580 711v388h130v-388h-130zM936 711v388h129v-388h-129z" />
<glyph unicode="&#x2023;" horiz-adv-x="3551" d="M-2 1236h149l100 -374l99 374h149l-177 -567v-390h-142v390q-41 135 -77 250q-15 49 -31 98.5t-29.5 92.5t-24 76t-16.5 50zM466 505v255q0 116 43 171q27 37 64 53t85 16q43 0 82.5 -16t66.5 -53q42 -56 42 -170v-256q0 -112 -39 -164q-27 -37 -68 -56t-84 -19t-83.5 19 t-67.5 56q-20 27 -30.5 67t-10.5 97zM601 491q-5 -54 10 -80t47 -26t47 26t10 80v284q5 54 -10 79t-47 25t-47 -25t-10 -79v-284zM949 428v567h134v-582q2 -15 9 -21t20 -6q20 0 38 16.5t40 46.5v546h134v-716h-134v77q-38 -44 -72.5 -66t-69.5 -22q-31 0 -52.5 14.5 t-32.5 40.5q-6 17 -10 42t-4 63zM1434 657v160q0 64 3 125.5t7 109.5q4 56 11 106q7 41 18 81q10 33 26 69t40 60q30 31 61 48.5t59.5 25.5t52.5 10.5t39 4.5q55 4 116.5 6.5t124 5t123.5 4t117 2.5q130 3 260 3h1q129 0 259 -3q55 -1 116.5 -2.5t124 -4t123.5 -5t117 -6.5 q16 -2 39.5 -4.5t52 -10.5t60 -25.5t61.5 -48.5q23 -24 39.5 -60t26.5 -69q11 -40 18 -81q6 -50 10 -106q4 -48 7.5 -109.5t3.5 -125.5v-160q0 -64 -3.5 -125t-7.5 -109q-4 -56 -10 -107q-7 -42 -18 -81q-10 -33 -26.5 -68.5t-39.5 -59.5q-30 -32 -61.5 -49t-60 -25 t-52 -10.5t-39.5 -4.5q-56 -4 -117 -7t-124 -5.5t-124.5 -4t-116.5 -2.5q-130 -3 -259 -3q-156 1 -296 4q-60 1 -121.5 2.5t-118 4t-104.5 5t-80 5.5q-18 3 -45 6t-59 11t-65.5 24.5t-63.5 48.5q-24 24 -40 59.5t-26 68.5q-11 39 -18 81q-7 51 -11 107q-4 48 -7 109t-3 125z M1608 1094h149v-815h142v815h156v135h-447v-135zM2033 428q0 -38 4.5 -63t10.5 -42q11 -26 32.5 -40.5t52.5 -14.5q35 0 69 22t73 66v-77h134v709h-134v-539q-22 -30 -40 -46.5t-38 -16.5q-13 0 -20 6t-9 21v575h-135v-560zM2516 279h127v71q66 -81 136 -81q79 0 105 81 q14 45 14 141v284q0 51 -5 85.5t-12 55.5q-13 40 -38.5 61.5t-63.5 21.5q-35 0 -69.5 -21t-66.5 -59v310h-127v-950zM2643 419v429q33 33 67 33q28 0 41 -19.5t13 -72.5v-305q0 -54 -13 -76t-41 -22q-34 0 -67 33zM2984 505q0 -57 12 -97t32 -66q58 -73 156 -73 q102 0 155 77q24 34 30 77q1 10 3 31t2 53v20h-135v-61.5t-1 -27.5q-10 -52 -57 -52q-34 0 -48.5 24.5t-14.5 73.5v128h256v145q0 111 -42 167q-27 36 -65 55t-86 19q-97 0 -154 -74q-20 -27 -31.5 -70t-11.5 -100v-249zM3118 718v78q0 50 14.5 67.5t46.5 17.5t46 -18 t14 -67v-78h-121z" />
<glyph unicode="&#x202f;" horiz-adv-x="298" />
<glyph unicode="&#x203c;" horiz-adv-x="1706" d="M-5 739l428 740h208l-531 -923zM155 461l585 1018h221l585 -1017l-116 -200h-1160zM325 167h1051l-98 -169h-855zM762 1195l46 -561h74l56 561h-176zM781 388h133v137h-133v-137zM1071 1479h207l427 -740l-104 -182z" />
<glyph unicode="&#x205f;" horiz-adv-x="373" />
<glyph unicode="&#x2193;" horiz-adv-x="902" d="M7 631h242v350h400v-352l242 -1l-444 -630zM249 1119v157h400v-157h-400zM249 1415v65h400v-65h-400z" />
<glyph unicode="&#x2195;" d="M-2 2v449h197v-252h252v-197h-449zM-2 1038v449h449v-198h-252v-251h-197zM315 319v128l156 155l195 68l-68 -196l-155 -155h-128zM315 1042v128h128l155 -155l68 -196l-195 68zM815 670l195 -68l156 -155v-128h-128l-155 155zM815 819l68 196l155 155h128v-128 l-156 -155zM1034 2v197h251v252h197v-449h-448zM1034 1289v197h448v-448h-197v251h-251z" />
<glyph unicode="&#x21ca;" d="M-2 -2l69 196l155 155h127v-127l-155 -155zM-2 1483l196 -69l155 -155v-128h-127l-155 156zM218 469v197h448v-448h-197v251h-251zM218 815v197h251v251h197v-448h-448zM815 218v448h448v-197h-251v-251h-197zM815 815v448h197v-251h251v-197h-448zM1131 222v127h128 l155 -155l68 -196l-195 69zM1131 1131v128l156 155l195 68l-68 -195l-155 -156h-128z" />
<glyph unicode="&#x21e4;" horiz-adv-x="1332" d="M-2 747l741 741v-1482zM1032 2v1486h300v-1486h-300z" />
<glyph unicode="&#x21e5;" horiz-adv-x="1332" d="M0 2v1486h300v-1486h-300zM593 6v1482l741 -741z" />
<glyph unicode="&#x2206;" horiz-adv-x="1707" d="M-1 1406l84 84l22 -22l6 -27l180 -180q-7 -8 -21.5 -13.5t-28.5 -10.5q-18 -5 -37 -9l-148 149l-30 3zM42 4l75 165l262 262q14 -29 30 -56.5t33 -55.5l-170 -170q-37 -37 -67 -68zM244 1150h28q37 0 87 12.5t103 31t104.5 40t92 40t66 31t26.5 13.5l12 6l11 -6 q1 0 26.5 -13t66 -31.5t92 -40t104.5 -40t103 -31t87 -12.5h28l-2 -28q0 -3 -3.5 -35t-12.5 -86.5t-25 -126.5t-42 -154q-24 -77 -59.5 -164.5t-86.5 -175.5t-118 -170t-154 -147l-15 -11l-16 11q-87 65 -154 147t-118 170t-86.5 175.5t-59.5 164.5q-26 82 -42 154 t-25 126.5t-12.5 86.5t-3.5 35zM399 1009q2 -17 6.5 -46t11.5 -66.5t18 -82t26 -93.5q18 -56 44 -120.5t62.5 -129t85 -125t110.5 -109.5v902q-17 -9 -59.5 -28.5t-95 -41t-108.5 -39t-101 -21.5zM1083 319q17 28 33 55.5t30 56.5l262 -262l77 -162l-164 74zM1216 1245 l198 196l6 27l22 22l84 -84l-27 -26l-30 -3l-166 -165q-20 4 -37 9q-15 5 -29 10.5t-21 13.5z" />
<glyph unicode="&#x2254;" horiz-adv-x="1489" d="M0 -7v356h356v-356h-356zM0 558v356h356v-356h-356zM0 1123v356h356v-356h-356zM534 -7v356h954v-356h-954zM534 558v356h954v-356h-954zM534 1123v356h954v-356h-954z" />
<glyph unicode="&#x2263;" d="M2 121h70q0 -15 5 -28q2 -7 4.5 -12.5t7.5 -10.5q8 -9 19 -15q12 -6 28 -6q25 0 41 16q17 14 17 41q0 21 -8 32q-7 10 -20 15q-6 3 -12.5 4t-14.5 2q-8 0 -14.5 0.5t-13.5 0.5v51h25q13 1 25 6q13 6 19 15q8 10 8 24q0 24 -16 36q-15 12 -35 12q-28 0 -43 -18 q-13 -17 -13 -46h-70q2 29 10 51q9 22 26 39q15 17 38 26q24 9 51 9q23 0 43 -7q23 -6 39 -19q17 -13 29 -31q11 -20 11 -43q0 -14 -3.5 -25t-9.5 -22q-7 -10 -16 -17t-22 -10v-1q32 -8 47 -30q17 -22 17 -52q0 -27 -11 -51q-6 -11 -13 -20t-17 -17q-18 -15 -43 -23 q-12 -5 -24.5 -6.5t-25.5 -1.5q-31 0 -56 9q-24 7 -42 25q-17 17 -28 42q-9 24 -9 56zM4 553q0 32 9 55q9 24 24 42q16 18 37 34q11 8 21.5 15.5t22.5 15.5q6 5 12 8.5t13 8.5q14 9 25 19q5 5 10 10.5t8 12.5q8 14 8 30q0 25 -15 40t-39 15q-17 0 -28 -8q-12 -8 -17 -19 q-7 -11 -10 -27q-3 -14 -3 -29h-70q0 33 7 58q10 28 25 46q18 21 42 31q12 6 26.5 8.5t30.5 2.5q27 0 48 -7q11 -5 21 -10t18 -13q18 -13 27 -35q10 -20 10 -48q0 -18 -5 -36q-4 -16 -14 -29q-5 -7 -9.5 -13t-10.5 -11l-12 -10t-13 -10t-13.5 -9.5t-14.5 -9.5 q-7 -5 -14 -9.5t-14 -9.5q-13 -9 -26 -20l-12 -12t-11 -13h171v-64h-265zM31 1345v56q10 0 19 0.5t18 2.5q17 3 32 11q14 9 24 23q10 13 13 35h58v-362h-73v234h-91zM384 0v348h1100v-348h-1100zM384 553v348h1100v-348h-1100zM384 1106v348h1100v-348h-1100z" />
<glyph unicode="&#x226a;" horiz-adv-x="1153" d="M-9 754l307 737h320l-307 -741l307 -746h-320zM515 754l307 737h320l-307 -741l307 -746h-320z" />
<glyph unicode="&#x226b;" horiz-adv-x="1153" d="M-1 4l307 741l-307 746h320l307 -750l-307 -737h-320zM523 4l307 741l-307 746h320l307 -750l-307 -737h-320z" />
<glyph unicode="&#x229c;" horiz-adv-x="1489" d="M0 744q0 102 26.5 197t75 177.5t116 150.5t150 116.5t177.5 75t197 26.5q103 0 197.5 -26.5t177 -75t150.5 -116.5t116.5 -150.5t75 -177.5t26.5 -197q0 -154 -58.5 -289t-159.5 -236t-236 -159.5t-289 -58.5q-102 0 -197 26.5t-177.5 75t-150 116.5t-116 150.5t-75 177 t-26.5 197.5zM80 744q0 -74 16 -144t45.5 -133.5t71 -119t93.5 -100.5l10 8v71l-142 120v398l142 83v151l-98 69q-65 -85 -101.5 -186.5t-36.5 -216.5zM254 483l142 -120v-142l-26 -25q39 -26 82 -47l73 150h410l78 -159q22 10 43.5 21.5t41.5 24.5l-43 32v145l142 120v315 l-142 83v239l145 102q-31 29 -64.5 54t-70.5 46l-130 -266h-410l-124 255q-35 -22 -68.5 -47.5t-62.5 -55.5l126 -88v-239l-142 -83v-315zM409 528v291l137 175h181h15h181l138 -175v-291l-144 -175h-175h-15h-175zM472 1348l104 -212h308l109 221q-118 49 -251 49 q-72 0 -139.5 -15t-130.5 -43zM489 557l101 -124h137h15h137l101 124v234l-96 123h-142h-15h-141l-97 -123v-234zM527 118q51 -17 104.5 -27t110.5 -10q51 0 100 8t95 22l-53 107h-308zM555 573v189l89 99h83h15h83l89 -99v-189l-84 -93h-88h-15h-88zM636 604l39 -44h52h15 h52l40 44v41h-198v-41zM636 726h198v5l-45 50h-47h-15h-47l-44 -50v-5zM704 115v39h73v-39h-73zM704 1225v46h73v-46h-73zM1135 258l31 -23q55 46 99 102.5t75 121.5t48 136.5t17 148.5q0 120 -40 226t-110 192l-120 -84v-151l142 -83v-398l-142 -120v-68z" />
<glyph unicode="&#x2315;" horiz-adv-x="1405" d="M0 870q0 84 21 162.5t60 146.5t93 124t120 96t141.5 62t157.5 22q123 0 230.5 -48.5t188 -131.5t127 -194.5t46.5 -238.5q0 -102 -31.5 -198t-91.5 -176l337 -338l-154 -161l-348 347q-69 -43 -146 -65t-158 -22q-123 0 -231 48t-188.5 131.5t-127 195t-46.5 238.5z M179 870q0 -88 32.5 -165.5t88.5 -135t130.5 -91t159.5 -33.5q113 0 191 37.5t126.5 98t70 136.5t21.5 153q0 90 -31.5 167.5t-87 134.5t-130 90t-160.5 33q-85 0 -159.5 -33.5t-130.5 -91t-88.5 -135t-32.5 -165.5z" />
<glyph unicode="&#x24bb;" horiz-adv-x="1486" d="M-4 122v1237q0 26 10 48.5t27 39.5t39.5 27t48.5 10h1237q26 0 48.5 -10t39.5 -27t27 -39.5t10 -48.5v-1237q0 -26 -10 -48.5t-27 -39.5t-39.5 -27t-48.5 -10h-333v571h191l36 229h-227v178q0 16 7 29t17.5 22.5t22 14.5t20.5 5h164v209h-188q-67 0 -118 -23.5 t-85.5 -62.5t-52.5 -90t-18 -106v-176h-197v-229h197v-571h-673q-26 0 -48.5 10t-39.5 27t-27 39.5t-10 48.5z" />
<glyph unicode="&#x24d8;" horiz-adv-x="1481" d="M-1 744q0 149 58 288q29 66 68.5 125.5t90.5 110.5t110.5 90.5t125.5 68.5q139 58 289 58q149 0 288 -58q66 -29 125.5 -68.5t110.5 -90.5t90.5 -110.5t68.5 -125.5q58 -139 58 -288q0 -150 -58 -289q-29 -66 -68.5 -125.5t-90.5 -110.5t-110.5 -90.5t-125.5 -68.5 q-139 -58 -288 -58q-150 0 -289 58q-66 29 -125.5 68.5t-110.5 90.5t-90.5 110.5t-68.5 125.5q-58 139 -58 289zM117 744q0 -129 49 -242.5t134 -198.5t198.5 -134t242.5 -49t242.5 49t198 134t133.5 198.5t49 242.5t-49 242.5t-133.5 198t-198 133.5t-242.5 49t-242.5 -49 t-198.5 -133.5t-134 -198t-49 -242.5zM401 901q2 75 25 135q24 62 67 106q41 43 103 70q59 25 135 25q95 0 161 -26q65 -27 104 -66q40 -42 56 -85q17 -44 17 -85q0 -49 -9 -85t-26 -62q-18 -29 -37 -47q-20 -20 -42 -36q-11 -8 -21.5 -16t-21.5 -16q-22 -15 -40 -34 q-9 -9 -17 -19t-15 -21q-13 -22 -18 -53v-35h-183v45q2 23 5 42t9 35q12 34 28 58t36 43q10 10 19.5 18.5t20.5 16.5q10 8 19.5 15.5t18.5 15.5q18 13 31 31q15 18 22 37q8 22 8 48q0 62 -30 92q-32 30 -85 30q-37 0 -63 -14q-29 -16 -44 -38q-18 -26 -25 -56q-8 -34 -8 -69 h-200zM633 249v203h207v-203h-207z" />
<glyph unicode="&#x25a0;" d="M0 1v1486h1486v-1486h-1486z" />
<glyph unicode="&#x25b6;" horiz-adv-x="1153" d="M0 1v1482l1162 -741z" />
<glyph unicode="&#x25b7;" horiz-adv-x="2112" d="M0 665v160q0 64 3 125.5t7 109.5q4 56 11 107q7 41 18 80q10 33 26 69t40 60q30 32 61 49.5t59 25.5t52 10.5t39 4.5q55 4 116.5 6.5t123.5 5t123 4t117 2.5q130 3 259 3h1q128 0 258 -3q55 -1 116.5 -2.5t124 -4t123.5 -5t117 -6.5q15 -2 39 -4.5t52 -10.5t59 -25.5 t61 -49.5q24 -24 40 -60t26 -69q11 -39 18 -80q6 -51 10 -107q4 -48 7.5 -109.5t3.5 -125.5v-160q0 -65 -3.5 -126t-7.5 -109q-4 -56 -10 -107q-7 -42 -18 -81q-10 -33 -26 -68.5t-40 -59.5q-30 -32 -61 -49.5t-59 -25.5t-52 -10.5t-39 -4.5q-56 -4 -117 -7t-123.5 -5.5 t-124 -4t-116.5 -2.5q-130 -3 -259 -3q-156 1 -295 4q-59 1 -120.5 2.5t-118 4t-104.5 5t-79 5.5q-18 3 -45.5 6t-59 11t-65 25t-63.5 49q-24 24 -40 59.5t-26 68.5q-11 39 -18 81q-7 51 -11 107q-4 48 -7 109t-3 126zM837 471l571 295l-571 298v-593z" />
<glyph unicode="&#x25b8;" horiz-adv-x="1486" d="M-2 740q0 102 26.5 197t74.5 177t116 150t150 116t177 74.5t197 26.5t197 -26.5t177.5 -74.5t150 -116t116 -150t75 -177t26.5 -197t-26.5 -197t-75 -177.5t-116 -150t-150 -116t-177.5 -75t-197 -26.5t-197 26.5t-177 75t-150 116t-116 150t-74.5 177t-26.5 197.5z M166 740q0 -119 45 -223.5t123 -182.5t182 -123t223 -45t223.5 45t182.5 123t123 182.5t45 223.5q0 79 -20.5 152t-58 137t-90 116t-116 89.5t-137 58t-152.5 20.5t-152 -20.5t-137 -58t-116 -89.5t-89.5 -116t-58 -137t-20.5 -152zM540 342v796l563 -398z" />
<glyph unicode="&#x25cd;" horiz-adv-x="1489" d="M0 745q0 103 26.5 198t75 177.5t117 150t151.5 116t178.5 75t198.5 26.5q102 0 196.5 -27t176.5 -75.5t150 -116.5t116 -151t74.5 -178t26.5 -197q0 -103 -26.5 -198t-75 -177.5t-117 -150t-151.5 -116t-178.5 -74.5t-198.5 -26q-102 0 -196.5 26.5t-176.5 75t-150 116.5 t-116 151t-74.5 177.5t-26.5 197.5zM82 653q15 -108 65 -208.5t134 -181.5q173 -169 416 -184h15t11.5 2.5t6.5 9t1 18.5q-2 18 3 37t8 38q7 38 13 75.5t11 75.5q2 9 -3 19.5t-11 17.5q-18 20 -35.5 40t-28 42t-11 47t16.5 56q5 9 4.5 18.5t-0.5 12.5q-20 11 -35.5 19 t-30.5 16q-23 12 -45 23.5t-45 22.5q-21 11 -43 19.5t-39 22.5q-14 11 -22.5 29.5t-18.5 35.5q-2 -2 -3.5 -2.5t-3.5 -2.5q2 -8 4.5 -15t5.5 -15q-18 6 -26 18q-14 20 -25.5 42t-27.5 40q-13 15 -24.5 30t-19 31.5t-10.5 35t2 39.5q2 10 -1 21.5t-8 20.5q-11 20 -23.5 38 t-24.5 37q-3 -4 -5.5 -8.5l-7.5 -13.5q-4 14 -6.5 24.5t-7.5 26.5q-12 -12 -23 -21t-18 -20q-58 -101 -78.5 -211t-5.5 -218zM530 732q2 -9 9 -18.5t15 -13.5q6 -3 16 2.5t18 9.5t14.5 9t14.5 10q2 -2 3.5 -4.5t3.5 -4.5l-12 -45q13 -2 20.5 -4t11.5 -6t6.5 -12t5.5 -22 q1 -5 6.5 -11t9.5 -6q15 2 29.5 5t28.5 8q8 3 26.5 3.5t38.5 -2t37.5 -6.5t23.5 -8q12 -10 26.5 -16.5t28.5 -15.5q8 -5 16 -12l16 -14q17 -13 33.5 -26.5t34.5 -24.5q11 -7 25.5 -9.5t26.5 -8.5q39 -18 9 -53q-8 -9 -15.5 -18.5t-10.5 -20.5q-8 -29 -21 -53t-44 -38 q-8 -4 -16.5 -14.5t-8.5 -18.5q0 -22 -10 -37t-24 -27t-29 -23.5t-25 -25.5q-14 -18 -28.5 -35.5t-25.5 -39.5q69 0 137 22.5t130 60.5t116 88t94 104.5t64 110.5t26 105q-26 -11 -46.5 -9t-36.5 12t-28.5 26t-22.5 33q-7 12 -9.5 26.5t-2.5 30t0.5 31.5t-0.5 31q-1 3 4 7.5 t9 5.5q22 4 34 16t20.5 27.5t16 31.5t21.5 27q-22 9 -27.5 20t-4.5 23t4.5 24.5t0.5 23.5q17 -1 30 -1.5t26 -1.5q-5 48 -22.5 76t-41.5 31q0 13 2 26.5t-3 21.5q-42 57 -91.5 105.5t-110.5 85.5q-21 13 -40 4.5t-27 -31.5q-6 -20 -13 -40l-14 -40q-27 9 -48 31t-32 49.5 t-11 56t14 50.5q-32 7 -63.5 13.5t-61.5 13.5q-12 -22 -7.5 -33.5t15 -19t21.5 -15t13 -21.5q-4 -6 -9.5 -14.5t-11.5 -19.5q-7 8 -13 14t-11 12q0 -9 4 -15t5 -13q2 -10 2 -21t-5 -19q-5 -11 -9.5 -12.5t-9 1t-9.5 7.5t-9 7q-17 9 -34 18.5t-34 19.5q11 12 22.5 26.5 t24.5 29.5q-6 6 -10 9q-6 -3 -13 -6t-15 -7q1 42 -7.5 54.5t-32.5 8.5q-6 -26 -11.5 -52t-12.5 -55q8 -3 17.5 -8t20.5 -10q-3 -3 -5.5 -6t-5.5 -6q-7 2 -15.5 -1t-16.5 -3.5t-14.5 5.5t-9.5 26q-19 -24 -34.5 -44t-27.5 -40q-3 -5 -0.5 -16t7.5 -16q31 -26 62 -50t60 -47 q10 16 13 35t2.5 39.5t-2 41.5t-0.5 42q21 5 35 -0.5t24 -16.5t18 -25t17 -26l14 17.5t14 16.5q28 -52 55.5 -102t56.5 -105q-23 4 -38 7t-30 5q5 11 8.5 20.5t7.5 18.5q-8 6 -11 10q-13 -12 -25.5 -23.5t-25.5 -22.5q10 -6 20.5 -12.5t24.5 -14.5q-16 -6 -30.5 -12 t-28.5 -11q-9 -3 -20 -4t-16 -7q-16 -22 -27.5 -48t-30.5 -43q-24 -21 -32 -42.5t3 -50.5q0 -1 -7 -8q-4 5 -8.5 8.5t-5.5 8.5q-7 28 -23 31t-37 -4q-4 -1 -7.5 -2.5t-7.5 -1.5q-42 0 -54 -14t-3 -54z" />
<glyph unicode="&#x25cf;" horiz-adv-x="1478" d="M164 741q0 119 45 223.5t123 182t182 122.5t223 45t223.5 -45t182.5 -122.5t123 -182t45 -223.5t-45 -223.5t-123 -182.5t-182.5 -123t-223.5 -45t-223 45t-182 123t-123 182.5t-45 223.5z" />
<glyph unicode="&#x25dd;" horiz-adv-x="1421" d="M-2 670v309q199 0 382 -77q176 -75 311 -210q136 -136 210 -311q77 -184 77 -382h-308q0 92 -24 178t-68 160.5t-105 136t-136 105t-160.5 67.5t-178.5 24zM-2 1175v308q302 0 578 -116q267 -113 472 -318q206 -207 318 -472q58 -138 87.5 -282.5t29.5 -295.5h-309 q0 162 -42 312t-118.5 281t-184 238t-238 184t-281 119t-312.5 42zM7 211q0 42 16 79.5t43.5 65t65 43.5t79.5 16t79 -16t64.5 -43.5t43.5 -65t16 -79.5t-16 -79t-43.5 -64.5t-64.5 -43.5t-79 -16t-79.5 16t-65 43.5t-43.5 64.5t-16 79z" />
<glyph unicode="&#x25ec;" horiz-adv-x="1679" d="M-6 118l771 1365h140l771 -1365l-70 -120h-1542zM761 783l35 -350h74l34 350v162h-143v-162zM767 255h132v132h-132v-132z" />
<glyph unicode="&#x25ef;" horiz-adv-x="1486" d="M3 737q0 102 26.5 197t74.5 177t116 150t150 116t177 74.5t197 26.5t197 -26.5t177.5 -74.5t150 -116t116 -150t75 -177t26.5 -197t-26.5 -197t-75 -177t-116 -150t-150 -116t-177.5 -74.5t-197 -26.5t-197 26.5t-177 74.5t-150 116t-116 150t-74.5 177t-26.5 197z" />
<glyph unicode="&#x25fc;" horiz-adv-x="500" d="M0 0z" />
<glyph unicode="&#x2610;" d="M0 -1v1483h1483v-1483h-1483zM127 141l250 250q24 24 55 36.5t62.5 12.5t62.5 -12.5t55 -36.5l30 -29l129 129q31 31 70.5 46.5t80 15.5t80 -15.5t70.5 -46.5l284 -284v1148h-1229v-1214zM288 1033q0 38 14 71.5t39 58t58 39t71 14.5q18 0 34.5 -3.5t32.5 -9.5 q-29 -1 -54.5 -12.5t-44 -30.5t-29.5 -44.5t-11 -54.5q0 -30 11 -55.5t30.5 -45t45.5 -30.5t55 -11q27 0 51.5 9.5t43.5 26.5q-23 -46 -66.5 -75t-98.5 -29q-38 0 -71 14.5t-58 39t-39 57.5t-14 71z" />
<glyph unicode="&#x2638;" horiz-adv-x="1400" d="M1 878q-3 7 1 30t12 48.5t17 47t15 26.5t26 3t42.5 -5t42.5 -5.5t26 1.5t20.5 21.5t29 38.5t26 40t11.5 25q0 7 -8.5 25.5t-18.5 39.5t-17.5 40t-4.5 25q3 7 20 23.5t37 33t39 29t26 11.5t21.5 -14t31 -28.5t32 -29t25.5 -16.5q35 11 64 22q25 9 47 17t27 11q4 2 7 23.5 t7.5 46.5t10.5 46t16 24t33 4.5t47.5 2t44 -1t24.5 -4.5q4 -3 8.5 -23t9 -43.5t8.5 -43t8 -21.5t25 -9.5t45.5 -16t45.5 -15t26 -6.5t20.5 15.5l33.5 33.5t34 32t22 12t26.5 -14.5t43 -28t40 -30t18.5 -21.5t-7.5 -25.5t-18.5 -38.5t-18.5 -37.5t-7.5 -21.5t13.5 -22.5 t28 -40t30 -39.5t18.5 -20t24.5 0t44.5 5t44.5 5t24.5 -1l10 -8q13 -34 24 -62q9 -24 15.5 -46.5t4.5 -30.5t-19.5 -18t-37.5 -20.5t-37 -20t-19 -15.5t-3 -29t-1.5 -49t0.5 -48.5t4 -26.5q3 -5 20.5 -15.5t37 -22t36.5 -22t19 -14.5q3 -5 -2 -29t-13 -52t-17 -51t-14 -25 q-6 -2 -24 -0.5t-39 3.5t-40 3.5t-26 -0.5q-8 -3 -23 -21.5t-30.5 -41t-27 -42t-11.5 -24.5q1 -5 9.5 -21.5t18.5 -36.5t17.5 -39t5.5 -29t-19.5 -25.5t-38.5 -31t-40 -27.5t-24 -13t-20.5 12.5t-33 30.5t-33 31t-20.5 14q-5 -1 -25.5 -7t-44.5 -14t-44.5 -16t-25.5 -12 t-9.5 -24t-8.5 -43t-8.5 -43t-9.5 -25t-27.5 -9.5t-49 -6t-50.5 0t-31 8.5q-8 6 -12 24.5t-7 39.5t-5.5 40t-7.5 25t-25.5 14t-45.5 14.5t-46.5 11t-27.5 3.5t-21 -14.5t-31.5 -29t-31.5 -28.5t-22 -13t-27.5 11.5t-43 26.5t-41 30t-20.5 21t6.5 24.5t19.5 39.5t20 39.5 t8 25.5t-12.5 25t-26.5 37.5t-29 36t-19 20.5t-24 1.5t-41 -7t-42.5 -7.5t-29.5 2q-9 4 -19.5 26t-19 47.5t-13.5 49t-3 31.5q3 8 20 17.5t37 20t38 20.5t21 18t4.5 30.5t1 47t-3.5 45.5t-7 27q-5 6 -22.5 15.5t-37 20t-36.5 21t-20 18.5zM320.5 686q11.5 -78 50 -144 t100.5 -115t142 -70t158 -9.5t144 50t115 100.5t70 142q21 79 9.5 157.5t-50 144.5t-100.5 115t-142 70t-158 9.5t-144 -50t-115 -100.5t-70 -142t-9.5 -158z" />
<glyph unicode="&#x266a;" horiz-adv-x="682" d="M2 480v534h152v-534h-152zM141 475v539l461 474v-1483zM510 747q0 58 6.5 108.5t17.5 88t26 59.5t32 22t32 -22t26 -59.5t17.5 -88t6.5 -108.5t-6.5 -108.5t-17.5 -88.5t-26 -60t-32 -22t-32 22t-26 60t-17.5 88.5t-6.5 108.5z" />
<glyph unicode="&#x266b;" horiz-adv-x="1040" d="M1 482v534h152v-534h-152zM140 477v539l461 474v-1483zM509 749q0 58 6.5 108.5t17.5 88t26 59.5t32 22t32 -22t26 -59.5t17.5 -88t6.5 -108.5t-6.5 -108.5t-17.5 -88.5t-26 -60t-32 -22t-32 22t-26 60t-17.5 88.5t-6.5 108.5zM684 391q7 24 16.5 59.5t17 81t13 100.5 t5.5 117q0 106 -13 203.5t-38 170.5l97 32q28 -81 42.5 -185.5t14.5 -220.5q0 -100 -14.5 -199.5t-42.5 -188.5zM823 185q20 34 40 89t36.5 127t27 159.5t10.5 188.5q0 91 -8 177t-22.5 161t-35.5 136t-46 102l86 55q30 -47 53.5 -114.5t40 -149.5t25.5 -175t9 -192 q0 -90 -8.5 -178t-25 -168t-40 -148.5t-52.5 -120.5z" />
<glyph unicode="&#x2709;" horiz-adv-x="1836" d="M1 -1v1295l788 -684l145 -121l128 131l771 674v-1295h-1832zM120 1482h1628l-814 -718z" />
<glyph unicode="&#x270d;" horiz-adv-x="1819" d="M3 507v363h799v-599l-156 123h-500zM53 531l110 -87h501l13 -11l75 -59v446h-699v-289zM343 1105v388h874v-624l-156 123h-575zM469 1163h606v52h-606v-52zM469 1274h606v52h-606v-52zM948 6v624h874v-388l-142 -112h-575zM1091 314h606v52h-606v-52zM1091 426h606v51 h-606v-51z" />
<glyph unicode="&#x270e;" horiz-adv-x="1543" d="M0 0v1484h921l123 -122l-737 -737v-444h443l368 367v-548h-1118zM468 342v194l124 124l194 -194l-124 -124h-194zM689 757l661 661l193 -194l-660 -661z" />
<glyph unicode="&#x2713;" horiz-adv-x="1760" d="M-2 671l182 183l477 -488l1102 1121v-385l-1102 -1101z" />
<glyph unicode="&#x2716;" horiz-adv-x="1364" d="M0 1130v240h281v116h800v-116h281v-240h-96v-1129h-1170v1129h-96zM256 161h96v969h-96v-969zM432 161h209v969h-209v-969zM721 161h196v969h-196v-969zM997 161h109v969h-109v-969z" />
<glyph unicode="&#x2717;" horiz-adv-x="1576" d="M3 675.5q-8 94.5 8 191.5t60 189t108 166t142.5 127.5t168.5 85.5t185 40.5t191.5 -8t188.5 -60.5q51 -24 95 -54.5t82 -65.5l165 200l175 -626l-648 49l176 216q-29 27 -62.5 50.5t-71.5 41.5q-99 47 -204.5 50.5t-201 -30.5t-174.5 -103.5t-126 -168.5t-50.5 -204 t30.5 -200.5t103.5 -174.5t168.5 -126t204.5 -50.5t201 30.5t174.5 103.5t126 168.5l189 -89q-44 -92 -108 -166t-142.5 -128t-168.5 -86t-185 -40.5t-191.5 8t-188.5 60.5q-92 43 -166 107.5t-128 143t-86 168.5t-40 184.5z" />
<glyph unicode="&#x275e;" horiz-adv-x="1651" d="M0 344v983l157 156h1336l156 -156v-983v-345l-238 189h-1254zM130 398l80 -80h1309v956l-80 80h-1229l-80 -80v-876zM246 442v208h1165v-208h-1165zM246 729v208h1165v-208h-1165zM246 1016v208h1165v-208h-1165z" />
<glyph unicode="&#xe114;" horiz-adv-x="1473" d="M-1 189v1109q0 39 15 73t40.5 59.5t60 40.5t73.5 15h1096q39 0 73.5 -15t60 -40.5t40.5 -59.5t15 -73v-1109q0 -39 -15 -73.5t-40.5 -60t-60 -40.5t-73.5 -15h-1096q-39 0 -73.5 15t-60 40.5t-40.5 60t-15 73.5zM173 239q0 -29 20.5 -50t49.5 -21h994q29 0 49.5 21 t20.5 50v642h-132q11 -33 16.5 -68t5.5 -72q0 -95 -36 -179t-98.5 -146.5t-146.5 -98.5t-179 -36t-178.5 36t-146 98.5t-98.5 146.5t-36 179q0 37 5.5 72t16.5 68h-127v-642zM433 741q0 -63 24 -119t65 -97t96.5 -65t118.5 -24t119 24t97 65t65 97t24 119t-24 118.5 t-65 96.5t-97 65t-119 24t-118.5 -24t-96.5 -65t-65 -96.5t-24 -118.5zM1039 1108q0 -14 6 -26q16 -15 31 -31q12 -6 26 -6h140q26 0 44.5 18.5t18.5 44.5v145q0 26 -18.5 44.5t-44.5 18.5h-140q-26 0 -44.5 -18.5t-18.5 -44.5v-145z" />
<glyph unicode="&#xe141;" horiz-adv-x="1511" d="M1 2l445 562l-250 248l224 186l71 -71l333 295l-72 71l214 195l545 -541l-196 -213l-72 71l-296 -330l71 -71l-188 -222l-251 251z" />
<glyph unicode="&#xe167;" d="M-2 182v211l331 331h211l-150 -148l-244 -244v-89l95 -94h88l244 244l148 149v-210l-331 -331h-210zM455 582l479 479l124 -124l-479 -479zM760 944v210l331 331h210l182 -181v-211l-331 -331h-211l150 148l244 244v89l-95 94h-88l-244 -244z" />
<glyph unicode="&#xe190;" horiz-adv-x="1863" d="M1 -1v1484h1864v-1484h-1864zM159 405q0 -47 18 -88.5t49 -72.5t73 -49t89 -18h1090q47 0 89 18t73 49t49 72.5t18 88.5v672q0 47 -18 88.5t-49 72.5t-73 49t-89 18h-1090q-47 0 -89 -18t-73 -49t-49 -72.5t-18 -88.5v-672zM327 570v341q0 106 69 181q68 74 167 74h80 q83 0 148 -55q64 -57 82 -142q3 -16 -12 -19l-88 -16q-13 -3 -17 12q-11 41 -42 66q-30 26 -71 26h-80q-49 0 -83 -37q-36 -38 -36 -90v-341q0 -52 36 -89q35 -38 83 -38h80q39 0 71 26q32 27 42 67q4 13 17 12l88 -17q15 -1 12 -19q-18 -86 -82 -141q-67 -56 -148 -56h-80 q-98 0 -167 75t-69 180zM992 570v341q0 107 70 181q68 74 167 74h80q83 0 147 -55q65 -56 83 -142q3 -16 -12 -19l-88 -16q-14 -3 -17 12q-11 41 -42 66q-30 26 -71 26h-80q-49 0 -83 -37q-36 -38 -36 -90v-341q0 -52 36 -89q35 -38 83 -38h80q39 0 71 26q32 27 42 67 q3 14 17 12l88 -17q15 -2 12 -19q-18 -87 -83 -141q-65 -56 -147 -56h-80q-98 0 -167 75q-70 74 -70 180z" />
<glyph unicode="&#xe1f6;" horiz-adv-x="1023" d="M0 107v667q0 37 24 66t59 37q0 83 6.5 160.5t24 145t47.5 123.5t77.5 95.5t115 61.5t158.5 22t158.5 -21.5t115 -61.5t78 -95t47.5 -123t23.5 -145.5t7.5 -161.5q35 -8 58.5 -36.5t23.5 -66.5v-667q0 -22 -8.5 -41.5t-22.5 -33.5t-33 -22.5t-41 -8.5h-813q-22 0 -41 8.5 t-33.5 22.5t-23 33.5t-8.5 41.5zM252 879h521q0 89 -5.5 172t-30.5 147.5t-77.5 103t-147.5 38.5q-63 0 -106.5 -18t-72.5 -49.5t-45 -75t-24 -94.5t-10 -108t-2 -116zM419 499q0 -35 1.5 -80.5t10 -86t27.5 -68.5t54 -28q36 0 55 28t27.5 68.5t10 86t1.5 80.5t-1.5 62 t-10 45.5t-27.5 28t-55 9.5q-35 0 -54 -9.5t-27.5 -28t-10 -45.5t-1.5 -62z" />
<glyph unicode="&#xe206;" horiz-adv-x="1275" d="M2 -4v120v731l183 181v152h154l302 298l300 -298h150v-149l184 -182v-735v-118h-139h-1002h-132zM157 193l313 335l-285 203v24l-28 20v-582zM206 131h865l1 1l-327 352l-107 -76l-104 74zM302 791l336 -240l336 238v274h-672v-272zM810 529l309 -333v576l-28 -20v-24z " />
<glyph unicode="&#xe2af;" horiz-adv-x="1178" d="M3 4v371h1q0 6 -0.5 12t-0.5 12q0 64 24.5 117.5t63 97t86.5 77t96 57.5q6 -7 12 -13.5t14 -13.5q10 -10 20 -19t21 -18q25 -21 52.5 -42t59.5 -42h223q32 21 59.5 42t52.5 42q11 9 20.5 18t20.5 19q10 9 18.5 18.5t16.5 18.5q4 3 10 7q55 -23 110 -56.5t99 -79t71 -103 t27 -127.5v-24v-371h-1177zM222 952v269q0 14 6 28q4 13 12 24q5 6 9.5 12t10.5 12q0 24 21 57q10 17 25 32.5t35 31.5q39 30 95 51q57 21 127 21q71 0 128 -21q56 -21 95 -51q40 -32 60 -64q21 -33 21 -57q5 -4 9.5 -8t9.5 -9q3 -5 6.5 -9.5t6.5 -10.5q6 -12 6 -26v-282 q0 -15 -10 -32q-8 -15 -26 -36q-8 -10 -17 -19.5t-19 -19.5q-11 -10 -21 -19t-21 -19q-26 -21 -54 -42.5t-60 -42.5h-227q-32 21 -60.5 42.5t-53.5 42.5q-11 10 -21 19t-21 19t-20 19.5t-17 19.5t-14 19t-11 17q-10 17 -10 32zM307 1182q0 -71 13 -119t33 -81q19 -33 40 -52 q21 -18 36 -27q3 -2 5.5 -3t4.5 -2l8 -5l7 -2q0 35 21 59q22 25 52 25h75q16 0 29 -7t22 -19q10 -11 16 -27q5 -17 5 -31q20 8 38.5 21t34.5 32q7 8 13.5 17t13.5 20q6 11 12 24t11 27t9 30.5t8 35.5q6 37 6 84q0 14 -17 22q-8 4 -18.5 7t-23.5 6q-18 3 -38 6t-42 5 q-44 6 -76 6h-82q-14 0 -30.5 -0.5t-34.5 -1.5q-19 -2 -36.5 -3.5t-34.5 -4.5q-17 -2 -31.5 -6.5t-25.5 -9.5q-23 -9 -23 -26z" />
</font>
</defs>
</svg>
